<?xml version="1.0" standalone="no"?>
<!DOCTYPE svg PUBLIC "-//W3C//DTD SVG 20010904//EN"
 "http://www.w3.org/TR/2001/REC-SVG-20010904/DTD/svg10.dtd">
<svg version="1.0" xmlns="http://www.w3.org/2000/svg"
 width="756.000000pt" height="1008.000000pt" viewBox="0 0 756.000000 1008.000000"
 preserveAspectRatio="xMidYMid meet">
<metadata>
Created by potrace 1.16, written by Peter Selinger 2001-2019
</metadata>
<g transform="translate(0.000000,1008.000000) scale(0.100000,-0.100000)"
fill="#000000" stroke="none">
<path d="M3555 9633 c-11 -3 -25 -9 -32 -15 -18 -15 -153 -23 -153 -9 0 37
-199 -24 -329 -100 -13 -8 -47 -29 -75 -47 -43 -27 -53 -30 -61 -18 -18 24
-76 22 -128 -3 -26 -13 -51 -20 -55 -16 -4 4 -1 10 6 12 19 7 14 23 -8 23 -11
0 -20 -4 -20 -10 0 -5 -18 -10 -41 -10 -32 0 -42 4 -46 20 -3 11 -7 20 -9 20
-2 0 -28 -6 -57 -14 -48 -12 -119 -20 -152 -17 -5 1 -3 6 5 11 13 9 13 11 0
20 -21 14 -23 13 -61 -15 -19 -14 -48 -32 -66 -40 -17 -8 -33 -20 -35 -26 -3
-8 -19 -8 -63 2 -45 10 -60 10 -63 1 -5 -15 -48 -16 -57 -2 -9 15 -169 12
-245 -4 -36 -8 -99 -17 -141 -21 -71 -7 -132 -24 -85 -25 16 0 17 -5 11 -32
-11 -44 -8 -108 6 -124 17 -20 3 -47 -21 -41 -28 7 -25 -7 10 -46 16 -19 30
-38 30 -42 0 -14 -34 -34 -57 -35 -31 0 -54 -45 -41 -81 8 -23 5 -31 -20 -56
-17 -16 -43 -38 -58 -48 -16 -10 -37 -29 -48 -43 -11 -14 -26 -22 -36 -19 -9
2 -25 -2 -35 -9 -10 -8 -40 -14 -65 -14 -26 0 -69 -7 -96 -15 -27 -8 -61 -15
-75 -15 -29 0 -94 -24 -103 -38 -4 -7 123 -8 160 -1 7 1 26 -3 43 -11 42 -17
41 -49 -3 -97 -18 -21 -41 -52 -49 -70 -11 -20 -28 -35 -49 -41 -79 -24 -238
-53 -278 -52 -34 2 -128 -23 -169 -45 l-34 -17 29 -24 c29 -24 29 -24 9 -40
-12 -9 -31 -13 -47 -10 -32 6 -33 4 -13 -27 8 -12 11 -27 7 -33 -13 -20 -57
-44 -78 -44 -29 0 -40 -31 -17 -48 10 -7 29 -16 43 -19 14 -3 38 -15 53 -26
16 -11 52 -25 79 -31 28 -6 53 -16 55 -22 2 -7 -26 -38 -62 -70 -64 -57 -94
-100 -34 -49 32 27 79 31 86 8 4 -12 -50 -44 -84 -48 -13 -2 -36 -14 -53 -27
-104 -79 -121 -101 -58 -75 49 21 118 31 118 18 0 -11 -100 -84 -170 -123 -25
-14 -69 -31 -97 -38 -29 -7 -53 -16 -53 -21 0 -12 4 -11 72 5 66 15 86 9 69
-23 -21 -39 -1 -41 45 -6 80 61 101 40 30 -30 -40 -41 -44 -43 -60 -27 -19 19
-18 19 -123 -53 -32 -22 -94 -59 -138 -82 -84 -43 -107 -65 -89 -83 7 -7 24
-5 55 9 61 28 97 27 101 -1 3 -21 5 -21 21 10 31 57 157 120 157 77 0 -8 -9
-38 -21 -67 -11 -29 -28 -73 -36 -98 -8 -25 -20 -49 -27 -55 -6 -5 -18 -46
-25 -90 -7 -44 -17 -88 -22 -97 -12 -23 -11 -75 2 -99 15 -30 2 -79 -22 -79
-10 0 -19 -6 -20 -12 0 -7 -2 -29 -4 -48 -2 -19 -6 -80 -8 -135 -2 -82 0 -105
15 -130 10 -16 18 -49 18 -72 0 -23 5 -45 10 -48 16 -10 12 -33 -9 -52 -16
-15 -21 -42 -30 -142 -6 -69 -9 -127 -6 -129 2 -2 -1 -16 -7 -31 -8 -20 -48
-185 -48 -198 0 -2 6 -3 13 -3 29 0 36 -40 38 -202 2 -180 -3 -204 -60 -268
-17 -19 -31 -44 -31 -55 0 -11 -7 -33 -15 -49 -8 -15 -15 -33 -15 -40 0 -6 -9
-28 -20 -49 -11 -21 -20 -47 -20 -60 0 -12 0 -50 0 -84 -1 -44 7 -77 25 -119
14 -31 27 -55 30 -53 2 3 -4 32 -15 65 -17 57 -18 102 -4 172 4 22 34 32 34
10 0 -6 2 -9 4 -7 2 2 1 24 -4 49 -7 38 -5 53 17 95 28 57 51 85 68 85 16 0
35 -73 36 -137 1 -26 5 -59 10 -73 l8 -25 -1 25 c-1 50 1 55 14 42 7 -7 13
-43 14 -85 1 -47 9 -90 23 -125 25 -62 27 -129 5 -180 -18 -41 -21 -172 -4
-200 5 -9 10 -12 10 -7 0 6 3 48 5 95 9 147 18 172 54 138 11 -11 12 -8 7 17
-4 17 -9 59 -12 94 -3 50 -1 68 12 82 14 16 20 17 32 6 12 -9 16 -9 19 1 7 20
30 14 59 -18 20 -21 30 -26 36 -17 6 9 12 9 28 -1 17 -10 20 -10 20 3 0 9 -7
18 -15 21 -8 4 -15 12 -15 18 0 7 -8 21 -17 32 -10 11 -33 50 -52 88 -31 62
-33 71 -22 106 6 21 22 45 36 54 16 11 24 24 22 39 -2 18 4 23 28 25 36 3 65
39 40 48 -20 8 -19 16 5 42 42 44 74 17 46 -39 -20 -40 -21 -36 9 -43 14 -4
25 -11 25 -16 0 -6 7 -10 16 -10 14 0 16 -7 11 -41 -4 -30 -2 -42 10 -46 9 -4
13 -14 9 -28 -4 -15 6 -47 29 -91 19 -38 35 -75 35 -81 0 -20 40 -144 66 -205
16 -37 22 -66 18 -83 -4 -15 -1 -31 6 -40 7 -9 10 -18 7 -22 -4 -3 5 -14 18
-25 14 -11 25 -30 25 -44 0 -25 15 -33 24 -11 12 28 106 -118 106 -165 0 -18
6 -23 26 -24 14 -1 36 -12 49 -24 13 -12 28 -19 34 -15 6 3 11 -2 11 -12 0
-22 86 -97 101 -88 5 4 16 1 24 -5 12 -10 15 -9 15 3 0 8 -7 20 -15 27 -8 6
-17 22 -21 33 -4 12 -19 36 -34 53 -30 35 -48 100 -31 117 7 7 25 -3 58 -30
65 -55 75 -67 117 -148 20 -38 50 -87 66 -107 17 -20 30 -40 30 -45 1 -14 50
-68 50 -55 0 7 5 10 11 6 6 -3 9 -15 6 -25 -3 -12 5 -30 21 -48 71 -76 109
-127 137 -179 17 -31 43 -70 58 -86 15 -16 27 -38 27 -50 0 -12 8 -26 18 -32
9 -6 29 -36 44 -66 27 -55 32 -115 10 -140 -6 -7 -14 -42 -18 -77 -5 -45 -13
-70 -28 -85 -13 -12 -27 -49 -37 -92 -15 -73 -12 -116 19 -212 10 -30 9 -33
-20 -48 -23 -12 -29 -21 -25 -37 8 -38 42 -122 51 -129 5 -3 11 -23 13 -45 2
-21 12 -55 22 -75 10 -21 18 -48 17 -60 -1 -13 7 -29 16 -36 10 -7 27 -33 38
-57 34 -75 51 -67 44 23 -2 30 1 52 6 52 6 0 10 -4 10 -10 0 -14 16 -12 32 4
8 7 29 12 47 11 26 -2 35 2 38 16 3 10 7 19 10 19 8 0 33 -28 33 -38 0 -5 9
-17 19 -26 21 -19 96 -135 96 -148 0 -4 5 -7 10 -5 6 1 9 10 7 21 -1 10 6 25
15 32 27 20 38 17 18 -6 -20 -22 -20 -22 17 -24 18 -1 28 4 31 15 3 12 12 15
30 12 13 -3 28 0 31 6 4 6 12 11 19 11 6 0 2 -6 -8 -14 -17 -12 -14 -14 28
-20 26 -4 53 -14 61 -22 21 -21 42 -19 25 3 -13 15 -12 16 6 8 11 -4 37 -10
58 -13 31 -3 36 -2 31 12 -5 14 -2 15 19 7 14 -5 28 -7 31 -4 3 4 6 2 6 -4 0
-17 38 -22 50 -8 9 11 7 12 -8 8 -21 -5 -41 15 -26 26 5 3 16 20 25 38 13 23
14 34 5 43 -8 9 -8 14 2 17 6 3 12 15 12 28 0 16 7 25 25 29 25 6 34 29 15 41
-18 11 -11 27 10 22 10 -3 24 1 30 8 9 10 7 12 -7 9 -12 -3 -26 4 -38 18 l-20
23 21 -18 c25 -21 35 -22 28 -2 -4 8 -1 15 6 15 6 0 9 3 7 8 -3 4 1 13 9 20
12 11 14 9 9 -17 -3 -18 -1 -31 5 -31 5 0 10 10 10 23 0 12 5 29 11 37 9 12
10 11 6 -7 -3 -13 -1 -26 4 -29 5 -3 9 2 9 11 0 15 2 15 22 1 12 -9 33 -16 45
-16 14 0 23 -6 23 -15 0 -8 7 -15 15 -15 21 0 19 4 -21 44 -25 25 -31 36 -20
36 18 0 21 15 6 25 -5 3 -10 1 -10 -4 0 -6 -6 -11 -14 -11 -10 0 -12 7 -8 22
3 14 2 19 -7 14 -17 -11 -37 15 -36 47 0 15 3 27 6 27 4 0 6 18 6 40 0 22 -4
40 -8 40 -5 0 -9 7 -9 16 0 10 -7 14 -22 12 -15 -2 -24 3 -26 15 -2 11 3 17
16 17 11 0 22 4 24 9 5 14 68 0 68 -16 0 -8 4 -12 9 -8 6 3 14 -2 19 -11 8
-14 10 -14 26 1 21 22 31 13 15 -12 -9 -15 -9 -24 0 -39 10 -17 11 -16 5 7 -5
23 -2 26 20 27 14 0 34 -9 44 -18 17 -16 21 -17 35 -3 10 10 17 11 21 4 4 -6
2 -11 -3 -11 -6 0 -11 -4 -11 -9 0 -5 17 -8 38 -6 44 4 98 -11 130 -36 16 -12
33 -16 53 -12 16 3 35 0 42 -6 20 -16 184 -31 237 -21 60 12 72 12 65 0 -3 -5
-1 -10 4 -10 6 0 11 5 11 11 0 9 55 37 89 44 89 19 123 32 196 81 72 47 165
135 165 155 0 4 -11 14 -24 23 -27 17 -56 12 -56 -10 0 -7 -9 -20 -21 -28 -12
-8 -18 -19 -15 -25 4 -6 1 -9 -6 -6 -8 3 -22 -1 -33 -9 -18 -13 -23 -11 -58
16 -44 35 -46 64 -7 89 14 9 39 30 56 46 39 37 115 76 127 64 9 -9 -1 -41 -14
-41 -5 0 -9 -13 -9 -29 0 -20 6 -32 19 -36 11 -3 22 -12 24 -20 15 -37 97 40
97 92 0 12 5 25 10 28 6 3 10 13 10 21 0 9 7 22 15 30 8 9 15 26 15 40 0 13 4
24 9 24 5 0 17 21 27 48 9 26 30 64 47 85 16 21 27 41 24 44 -3 2 -23 -7 -44
-21 -20 -14 -43 -26 -49 -26 -6 0 -17 -7 -24 -15 -7 -8 -28 -19 -47 -24 -29
-8 -38 -7 -56 10 -23 21 -37 24 -37 8 0 -6 -7 -8 -16 -5 -9 3 -21 3 -27 -1 -6
-4 -27 -8 -47 -10 -45 -5 -59 -19 -25 -25 14 -3 28 -1 31 3 7 12 24 11 24 -1
0 -5 -5 -10 -11 -10 -15 0 -39 -26 -39 -42 0 -10 -2 -10 -9 1 -5 7 -20 13 -34
13 -19 1 -24 4 -20 17 4 9 3 13 -2 9 -4 -4 -13 -1 -19 7 -14 18 -94 5 -111
-18 -6 -9 -29 -19 -50 -22 -22 -4 -45 -12 -52 -17 -6 -5 -42 -8 -80 -7 -37 1
-75 -1 -84 -5 -10 -4 -20 -3 -24 3 -8 14 -120 14 -145 1 -23 -12 -40 7 -19 21
12 8 12 10 0 18 -13 8 -13 12 0 27 13 15 12 16 -11 9 -14 -4 -30 -14 -37 -22
-10 -12 -12 -10 -11 16 1 17 5 31 10 31 4 0 8 -4 8 -10 0 -5 7 -7 15 -4 20 8
19 21 -2 27 -17 4 -17 5 0 6 13 1 16 7 11 25 -3 15 1 29 11 40 15 15 15 16 0
16 -9 0 -14 4 -11 9 4 5 -1 22 -11 38 -11 20 -14 36 -8 49 4 10 7 22 7 27 -3
11 16 9 23 -3 8 -13 55 18 55 35 0 7 11 22 25 32 30 22 21 37 -45 74 -79 45
-151 59 -296 56 l-130 -2 -34 29 c-38 32 -63 94 -56 138 3 15 1 30 -4 33 -6 3
-10 -5 -10 -19 0 -19 -5 -26 -20 -26 -18 0 -25 -10 -21 -32 0 -4 -6 -5 -15 -1
-14 5 -14 3 -2 -16 l13 -22 14 21 c7 11 19 20 25 20 7 0 7 -3 -2 -8 -9 -6 -8
-13 6 -28 10 -10 21 -27 25 -36 3 -10 13 -18 21 -18 10 0 13 -6 10 -15 -4 -10
0 -15 14 -15 24 0 72 -46 72 -70 0 -21 31 -50 52 -50 12 0 15 -10 14 -41 -1
-24 3 -43 9 -45 7 -3 12 -22 13 -42 1 -20 8 -42 17 -48 18 -14 20 -34 3 -34
-9 0 -8 -4 2 -10 13 -8 13 -13 2 -31 -12 -19 -10 -24 17 -51 17 -17 31 -35 31
-40 0 -5 5 -6 10 -3 6 3 16 3 23 -2 6 -4 17 -8 22 -8 6 -1 9 -6 8 -13 -2 -7 2
-12 7 -12 6 0 10 5 10 10 0 6 11 10 25 10 14 0 25 -4 25 -10 0 -5 -7 -7 -15
-4 -9 4 -15 0 -15 -9 0 -16 20 -27 53 -28 17 0 12 -5 -18 -19 -22 -10 -47 -19
-56 -19 -8 -1 -25 -12 -37 -25 -26 -31 -84 -47 -161 -45 -49 2 -58 5 -53 17 4
12 1 14 -12 9 -10 -4 -20 -7 -23 -7 -3 0 0 -7 7 -15 15 -19 6 -32 -12 -18 -7
6 -23 9 -35 7 -15 -3 -23 1 -23 11 0 8 -7 15 -15 15 -8 0 -15 -4 -15 -10 0 -5
-20 -15 -45 -21 -25 -6 -42 -15 -39 -20 3 -5 -1 -7 -8 -4 -7 3 -19 -4 -26 -15
-11 -18 -10 -20 9 -20 17 0 20 -5 17 -25 -5 -21 -2 -25 13 -20 11 4 19 2 19
-4 0 -5 -9 -13 -20 -16 -23 -7 -27 -45 -5 -45 18 0 19 -12 3 -28 -9 -9 -8 -12
5 -12 9 0 17 -7 17 -16 0 -11 6 -14 23 -9 l22 7 -22 -21 c-19 -18 -27 -20 -43
-11 -16 9 -20 8 -20 -5 0 -8 -4 -15 -10 -15 -5 0 -7 -8 -4 -17 2 -10 0 -7 -7
7 -21 48 -26 54 -40 59 -12 4 -12 2 0 -12 7 -10 9 -17 4 -17 -14 0 -32 21 -29
34 2 6 1 8 -1 5 -6 -10 -43 2 -43 14 0 10 -30 36 -42 37 -5 0 -8 -4 -8 -10 0
-5 6 -10 13 -10 8 0 14 -7 14 -15 0 -20 -6 -19 -31 5 -47 44 -77 70 -83 70 -3
0 -28 19 -57 43 -28 23 -57 47 -64 52 -8 6 -25 20 -38 32 -13 12 -24 18 -24
14 0 -15 34 -85 58 -118 21 -30 28 -53 16 -53 -9 0 -43 44 -44 56 0 6 -10 20
-23 32 -13 12 -41 57 -62 99 -36 71 -155 213 -155 185 0 -7 -9 -12 -20 -12
-11 0 -20 -6 -20 -14 0 -9 -8 -12 -27 -8 l-26 5 31 28 c18 16 32 31 32 33 0 3
-24 2 -53 -1 -43 -4 -58 -2 -75 13 -12 10 -22 24 -22 30 0 7 -13 18 -30 26
-32 14 -37 23 -17 31 7 4 4 8 -9 12 -25 8 -50 48 -40 64 4 5 -11 39 -32 74
-21 34 -42 72 -46 82 -12 30 -38 127 -42 156 -2 14 -13 48 -25 75 -64 147
-150 466 -148 554 l0 25 16 -23 c9 -13 31 -58 48 -100 50 -121 161 -327 248
-456 57 -86 130 -219 248 -451 59 -115 110 -209 115 -207 20 6 -1 83 -47 175
-63 125 -155 333 -165 371 -5 21 -4 28 6 24 8 -2 18 -24 24 -49 8 -32 17 -45
31 -47 11 -2 16 0 10 5 -12 9 -14 72 -2 90 4 6 1 14 -5 16 -8 3 -6 6 5 6 23 1
22 5 -9 38 -27 29 -16 46 14 21 15 -13 98 -58 106 -58 2 0 -13 18 -33 40 -21
23 -46 55 -56 73 -19 32 -18 31 33 -11 29 -24 54 -48 58 -53 7 -12 24 -11 24
1 0 6 -40 50 -90 98 -57 56 -90 96 -90 109 0 11 -7 23 -15 27 -8 3 -15 10 -15
17 0 6 7 9 14 6 37 -14 -23 77 -68 104 -38 23 -13 26 39 5 32 -14 35 -13 35 1
0 9 -7 25 -16 35 -13 13 -14 21 -5 31 9 11 8 17 -4 27 -10 9 -15 9 -15 1 0 -6
-5 -11 -11 -11 -12 0 -1 43 13 49 5 1 2 12 -8 22 -16 17 -16 19 0 25 16 6 16
8 0 25 -16 18 -16 19 -1 19 19 0 23 15 7 25 -5 3 -1 14 10 25 23 23 49 28 31
6 -8 -10 -9 -16 -1 -21 12 -7 12 -7 14 25 2 32 44 102 57 94 5 -3 9 -2 8 3 -4
21 2 54 9 49 12 -7 40 19 51 47 7 18 15 25 26 21 8 -3 15 -1 15 5 0 6 -6 11
-14 11 -14 0 -26 21 -26 47 0 25 57 75 79 68 12 -3 23 0 28 8 4 8 28 17 51 20
29 3 49 13 59 26 8 12 18 19 23 16 4 -3 10 1 13 7 3 11 9 11 26 0 19 -11 21
-10 21 8 0 21 13 25 79 21 19 -1 38 4 42 11 15 24 145 27 203 3 17 -8 17 -6 2
22 -20 39 -120 115 -171 130 -77 22 -241 44 -322 43 -82 -1 -83 -1 -83 23 0
14 6 27 13 30 9 3 9 7 1 18 -9 11 -6 39 16 123 24 97 30 110 50 113 29 4 40
-11 40 -55 0 -20 4 -31 10 -27 6 3 10 29 10 56 0 49 1 50 28 48 15 -2 32 -1
37 2 6 3 22 5 37 4 15 0 30 5 32 12 8 19 36 16 36 -4 0 -15 1 -15 13 -1 6 9
33 18 58 21 43 6 50 3 112 -44 36 -27 69 -54 72 -59 3 -6 11 -10 18 -10 6 0
-15 27 -47 59 -53 53 -57 61 -44 75 9 9 25 13 39 10 14 -4 19 -2 13 3 -17 12
-26 61 -13 69 7 4 -1 17 -21 35 -17 16 -36 27 -41 24 -5 -3 -6 1 -3 9 7 19 0
20 -27 5 -17 -8 -20 -7 -17 6 2 13 -6 18 -37 21 -26 2 -45 11 -57 26 -9 13
-20 19 -24 15 -4 -4 -13 -2 -20 4 -8 6 -21 9 -29 5 -36 -13 -126 56 -116 89 2
6 5 35 7 65 5 60 16 153 40 330 9 63 17 131 20 150 2 19 6 58 9 85 3 28 10 64
15 80 5 17 11 77 15 135 3 58 14 163 23 235 16 119 19 130 42 142 17 8 28 9
37 1 9 -7 13 -7 13 0 0 5 18 9 39 9 21 -1 37 -5 34 -9 -2 -5 3 -8 12 -8 11 0
15 -5 11 -15 -7 -19 18 -20 37 0 8 8 17 12 19 9 3 -2 23 -6 46 -8 30 -3 42 0
46 11 5 11 15 14 40 9 28 -5 34 -4 32 11 -1 13 7 19 31 21 24 2 30 7 26 18 -4
12 0 14 22 8 24 -6 27 -4 22 10 -4 9 -2 16 4 16 13 0 39 25 39 38 0 6 7 12 15
16 8 3 14 9 13 13 -5 15 39 52 50 41 7 -7 18 -5 34 6 21 14 26 14 45 1 12 -8
23 -11 25 -7 2 5 15 12 30 15 23 6 37 -4 119 -86 90 -88 86 -64 -5 31 -22 23
-37 42 -33 42 18 0 118 -86 123 -106 3 -13 12 -28 20 -35 8 -6 14 -20 14 -30
0 -12 5 -16 14 -13 8 3 12 13 9 25 -8 29 6 23 72 -31 33 -27 87 -69 120 -91
33 -23 83 -61 110 -83 28 -23 75 -60 106 -84 31 -23 84 -71 118 -107 35 -36
73 -70 85 -77 11 -6 38 -24 59 -41 21 -16 40 -27 43 -25 2 3 -17 23 -43 44
-48 38 -93 79 -228 204 -38 36 -88 81 -110 99 -186 157 -424 382 -425 404 0
19 24 -2 147 -123 73 -71 135 -130 140 -130 4 0 -33 42 -83 93 -133 135 -162
173 -157 201 5 26 28 41 38 26 9 -14 35 -12 35 3 0 25 39 39 76 27 31 -11 37
-10 53 9 10 12 27 21 37 21 14 0 15 3 6 12 -17 17 -16 44 1 30 6 -5 27 -13 46
-17 29 -6 33 -5 28 9 -10 24 10 29 26 5 15 -20 16 -20 25 -2 5 10 6 27 2 38
-5 11 -6 29 -4 40 3 12 -4 30 -16 43 -19 20 -20 24 -6 38 18 17 36 11 36 -12
0 -8 7 -17 15 -20 8 -4 15 -11 15 -18 1 -17 48 -48 55 -36 12 20 37 9 48 -20
13 -34 27 -40 27 -10 0 11 5 20 10 20 6 0 10 -10 10 -22 0 -21 0 -21 15 -2 21
28 19 54 -4 54 -21 0 -37 17 -27 27 3 3 12 0 21 -7 16 -14 17 -13 19 44 0 22
7 41 14 43 6 3 12 -1 12 -9 0 -7 9 -21 20 -31 11 -9 20 -24 20 -32 0 -8 5 -15
10 -15 6 0 10 10 10 23 0 12 3 17 8 11 12 -19 36 -22 54 -6 14 12 21 12 33 2
8 -7 12 -16 9 -21 -3 -5 2 -6 10 -3 11 4 16 0 16 -10 0 -20 16 -21 24 -1 7 19
25 19 47 -1 14 -13 21 -13 37 -3 17 11 24 8 51 -20 21 -22 30 -39 26 -51 -3
-10 -1 -21 4 -24 6 -4 8 -13 5 -20 -3 -8 4 -16 15 -19 23 -6 28 -44 11 -77
-10 -18 -8 -18 17 -4 35 18 43 18 43 0 0 -8 5 -27 11 -43 7 -15 13 -37 14 -48
5 -30 25 -118 32 -135 3 -8 5 -21 4 -27 -1 -7 2 -13 7 -13 14 0 79 -205 87
-272 3 -32 11 -58 16 -58 6 0 7 -5 4 -10 -4 -6 2 -30 13 -53 12 -26 18 -54 15
-70 -4 -18 0 -34 11 -46 9 -10 13 -21 10 -24 -4 -4 -2 -13 4 -20 7 -8 10 -16
7 -19 -3 -3 1 -11 10 -18 8 -7 15 -19 15 -26 0 -8 5 -14 10 -14 6 0 15 -11 21
-24 6 -13 28 -34 50 -47 21 -13 39 -27 39 -31 0 -5 7 -8 15 -8 8 0 15 -7 15
-15 0 -9 6 -26 13 -38 8 -12 24 -65 36 -117 42 -186 132 -555 138 -570 12 -28
23 74 23 202 -1 71 4 146 10 169 8 30 8 44 0 54 -17 20 -21 68 -23 314 -2 222
6 324 32 369 8 15 12 49 10 90 -2 38 2 76 9 88 6 12 9 24 5 27 -3 4 0 33 7 66
11 51 10 63 -4 92 -9 17 -16 40 -16 49 0 10 -6 23 -14 29 -7 6 -16 26 -20 43
-3 17 -13 39 -21 48 -8 9 -16 42 -18 75 -3 47 -8 62 -25 73 -16 11 -22 25 -22
52 0 25 -7 43 -21 56 -33 30 -44 66 -23 81 11 8 14 18 9 30 -5 10 -7 22 -6 27
1 4 -5 18 -13 30 -8 13 -16 33 -18 45 -2 16 -24 36 -73 66 -71 43 -101 85 -89
127 4 12 -8 20 -46 33 -28 9 -56 15 -63 12 -17 -6 -77 19 -77 32 0 5 5 13 11
17 12 7 -43 44 -66 44 -8 0 -17 12 -20 28 -3 15 -12 50 -19 77 -8 28 -24 86
-36 130 -24 89 -51 150 -85 189 -12 14 -28 47 -35 74 -7 26 -22 59 -32 74 -10
14 -18 31 -18 38 0 15 -50 100 -59 100 -4 0 -12 15 -19 34 -7 18 -48 68 -94
112 -95 92 -188 188 -217 226 -34 42 -141 123 -202 152 -53 25 -199 67 -223
65 -6 -1 -20 -4 -31 -6z m-1096 -312 c31 -29 56 -32 72 -9 11 16 79 -2 79 -21
0 -10 24 -30 60 -49 33 -19 60 -37 60 -42 0 -15 69 -74 117 -101 26 -15 49
-32 51 -38 6 -18 -16 -12 -30 8 -13 19 -68 40 -68 27 0 -4 11 -24 25 -46 29
-46 20 -52 -19 -13 -14 14 -29 23 -33 19 -4 -3 -1 -12 5 -18 18 -18 14 -38 -8
-38 -28 0 -25 -18 5 -32 14 -6 25 -17 25 -25 0 -19 -7 -17 -49 15 -38 29 -89
48 -134 51 -28 1 -72 20 -117 51 -14 10 -64 43 -112 75 -49 31 -88 61 -88 66
0 14 28 11 55 -7 30 -19 33 -6 5 19 -25 21 -26 47 -2 47 12 0 22 13 31 45 7
25 19 45 26 45 7 0 27 -13 44 -29z m-389 -110 c17 -10 52 -43 77 -72 25 -30
54 -61 65 -69 11 -8 35 -30 54 -47 18 -18 38 -33 44 -33 6 0 38 -18 70 -40 32
-22 62 -40 65 -40 4 0 -7 16 -24 35 -31 36 -39 55 -22 55 6 0 38 -24 73 -54
35 -29 73 -56 86 -60 12 -4 22 -15 22 -26 0 -10 27 -53 60 -94 33 -42 60 -82
60 -90 0 -9 7 -12 20 -9 14 4 20 0 20 -11 0 -10 -4 -14 -10 -11 -16 10 -12
-18 7 -44 32 -47 -6 -15 -53 45 -70 87 -194 219 -194 206 0 -6 4 -13 9 -16 5
-3 26 -31 46 -62 21 -31 53 -65 72 -76 25 -15 31 -24 23 -32 -14 -14 -74 18
-106 59 -36 45 -38 47 -92 93 -74 61 -82 52 -15 -17 76 -78 96 -102 89 -109
-4 -3 -19 4 -36 16 -36 27 -50 11 -15 -17 14 -11 29 -21 33 -23 4 -2 18 -15
31 -31 20 -22 22 -27 8 -27 -9 0 -26 9 -38 21 -16 16 -23 18 -35 8 -11 -9 -14
-8 -14 5 0 18 -11 21 -27 5 -12 -12 -43 14 -43 37 0 8 -5 14 -11 14 -6 0 -8 8
-4 20 4 14 -5 31 -34 63 -23 24 -41 53 -41 65 0 13 -43 61 -122 136 -67 63
-119 118 -116 121 3 4 24 -3 47 -15 52 -26 52 -15 0 35 -45 45 -83 105 -64
105 2 0 18 -8 35 -19z m863 -313 c12 -7 31 -21 43 -30 17 -15 25 -16 52 -6 28
11 34 10 42 -2 5 -8 10 -11 10 -7 0 4 9 3 21 -3 14 -8 19 -19 17 -38 -4 -32
-23 -31 -23 1 0 18 -6 22 -30 22 -29 0 -30 -2 -29 -43 2 -43 -10 -56 -21 -23
-3 11 -13 25 -22 33 -15 12 -16 10 -9 -14 7 -31 7 -32 -28 -18 -24 9 -26 7
-26 -16 0 -22 -3 -24 -14 -15 -11 9 -16 9 -21 0 -6 -8 -10 -7 -17 5 -13 23
-28 20 -28 -5 0 -12 -5 -19 -12 -16 -14 4 -14 27 -3 65 6 18 3 22 -13 22 -31
0 -44 22 -29 53 l12 26 23 -27 c13 -15 21 -22 18 -16 -8 16 20 25 50 18 26 -7
34 13 9 22 -17 7 -20 24 -5 24 6 0 20 -6 33 -12z m-1623 -253 c0 -8 7 -15 15
-15 8 0 15 -9 15 -20 0 -13 7 -20 20 -20 15 0 20 -7 20 -29 0 -17 5 -33 10
-36 15 -9 12 -35 -5 -35 -11 0 -13 -8 -8 -32 5 -27 4 -30 -12 -25 -18 7 -45
-8 -45 -24 0 -5 7 -9 16 -9 13 0 14 -11 8 -72 -7 -80 -19 -104 -32 -69 l-8 23
-16 -24 c-9 -14 -18 -35 -20 -49 -2 -18 -10 -25 -31 -27 l-28 -3 7 70 c3 39 4
71 1 71 -3 0 -15 -29 -27 -65 -13 -39 -27 -65 -36 -65 -23 0 -12 84 23 178 13
34 21 42 40 42 20 0 24 4 18 18 -12 28 -11 57 3 57 7 0 23 18 37 40 27 45 33
95 11 95 -18 0 -29 16 -21 30 10 16 45 12 45 -5z m619 -47 c-6 -13 -19 -31
-27 -41 -14 -16 -14 -19 4 -32 11 -9 28 -12 39 -9 36 12 98 10 102 -3 3 -7 -2
-13 -11 -13 -8 0 -18 -5 -22 -11 -9 -14 15 -29 34 -21 11 4 13 1 7 -8 -5 -8
-4 -11 3 -6 6 4 35 -5 63 -20 39 -19 49 -28 38 -35 -12 -7 -12 -9 1 -10 8 -1
18 -1 22 -1 3 1 12 -5 18 -13 7 -8 18 -15 25 -15 7 0 18 -7 25 -15 6 -8 37
-27 68 -41 48 -23 53 -28 34 -32 -13 -2 -31 0 -40 4 -9 4 -23 6 -30 5 -8 -1
-30 9 -50 23 -21 14 -59 34 -87 46 -27 12 -59 29 -70 39 -11 10 -35 23 -53 29
-18 6 -46 20 -61 32 -16 11 -33 20 -37 20 -17 0 -54 45 -54 67 0 13 3 23 8 23
4 0 15 14 24 30 20 36 45 42 27 8z m-106 -127 c4 0 7 -7 7 -15 0 -15 -30 -26
-76 -26 -38 0 -60 -17 -66 -52 -3 -15 -2 -26 1 -23 16 9 30 -16 55 -100 59
-195 63 -218 50 -297 -15 -89 -37 -22 -55 162 -12 132 -24 184 -38 162 -8 -14
-7 -125 3 -182 10 -61 13 -201 4 -206 -4 -3 -11 2 -14 10 -3 9 -16 16 -28 17
-21 0 -20 1 2 12 21 9 23 16 18 56 -10 82 -18 194 -21 301 -3 129 -1 117 -25
125 -11 4 -20 15 -20 27 0 16 5 19 23 15 12 -3 37 0 56 7 28 10 89 14 124 7z
m-613 -466 c0 -20 16 -19 24 1 14 37 20 -4 17 -126 -2 -90 1 -130 9 -130 8 0
8 -6 0 -20 -14 -26 -25 -25 -37 3 -8 16 -9 -3 -6 -73 6 -115 47 -300 79 -356
13 -22 24 -51 24 -64 0 -13 7 -32 17 -42 9 -10 13 -21 9 -26 -4 -4 -27 15 -49
43 -23 27 -55 63 -70 80 l-28 30 23 -40 c12 -22 30 -51 40 -64 35 -46 18 -44
-28 3 -25 26 -49 45 -52 41 -4 -4 5 -17 19 -28 24 -21 45 -57 33 -57 -14 0
-80 51 -180 141 -12 11 -29 17 -37 13 -16 -6 -42 28 -31 39 4 3 -7 25 -23 49
-108 158 -115 169 -107 186 4 9 6 21 5 25 -4 22 37 -17 74 -69 26 -38 48 -59
60 -59 12 0 20 -7 20 -17 0 -17 54 -73 62 -64 3 2 0 13 -5 23 -19 35 -62 173
-62 198 0 29 -15 33 -29 8 -15 -28 -26 -6 -11 24 7 16 13 32 11 37 -1 5 6 17
15 28 15 16 16 24 6 52 -14 38 -15 46 -4 46 9 0 38 -73 52 -135 17 -77 26 -82
25 -13 0 35 -4 69 -8 75 -4 7 -2 23 4 35 7 13 14 52 15 88 1 36 3 69 3 74 1 5
7 3 14 -3 10 -8 14 -48 14 -159 1 -147 6 -181 49 -307 13 -38 14 -37 7 35 -13
136 -4 454 13 482 9 13 24 9 24 -7z m-393 -183 c16 -10 13 -82 -4 -82 -8 0
-39 -16 -69 -35 -63 -41 -91 -46 -74 -15 7 14 7 20 0 20 -5 0 -10 10 -10 23 0
16 16 32 58 59 57 38 77 44 99 30z m-257 -436 c0 -13 -7 -42 -15 -65 -8 -23
-17 -65 -21 -94 -11 -87 -33 -106 -82 -72 l-22 16 30 56 c17 31 30 64 30 74 0
10 5 21 10 24 6 4 19 24 30 46 23 44 40 51 40 15z m1885 -260 c0 -232 -17
-322 -118 -621 -50 -148 -88 -235 -104 -235 -6 0 -36 28 -65 62 -29 34 -75 86
-103 116 -40 44 -45 53 -26 47 15 -5 21 -4 17 3 -3 6 -2 13 4 17 5 3 10 15 10
26 0 10 5 19 11 19 6 0 8 9 4 20 -5 15 -2 20 13 20 18 0 19 4 11 47 -6 33 -6
49 2 54 6 4 8 12 4 19 -6 9 -3 9 13 1 17 -9 19 -8 15 7 -2 10 6 30 19 45 19
21 26 25 36 15 9 -9 12 -7 12 9 0 11 7 26 15 33 13 11 13 15 3 22 -10 8 -10
11 0 15 9 3 7 12 -8 30 -24 31 -26 47 -3 39 15 -6 16 -5 1 11 -12 14 -14 29
-8 73 4 30 6 58 4 62 -3 4 13 4 33 1 l38 -5 -30 25 c-27 23 -28 25 -9 31 11 3
26 22 33 41 7 19 16 35 21 35 4 0 22 13 40 30 17 16 44 31 58 33 22 3 27 9 25
31 -2 25 -1 25 15 9 15 -14 17 -40 17 -187z m-1965 -16 c13 -24 3 -107 -14
-117 -6 -4 -18 -8 -26 -8 -11 0 -14 -9 -12 -29 2 -20 -5 -37 -24 -57 -15 -16
-33 -29 -40 -29 -22 0 -8 100 25 180 17 41 31 76 31 78 0 1 11 2 25 2 14 0 29
-8 35 -20z m1946 -522 c-4 -18 -11 -83 -16 -144 -10 -125 -38 -291 -51 -299
-4 -3 -31 16 -59 42 l-51 48 61 127 c33 70 67 153 75 183 16 63 22 75 37 75 7
0 8 -12 4 -32z m-407 -224 c64 -51 181 -158 181 -166 0 -5 -7 -11 -15 -14 -8
-4 -12 -10 -9 -15 7 -11 -37 -88 -71 -125 -13 -14 -26 -31 -29 -37 -5 -9 -8
-9 -12 1 -3 6 -16 12 -29 12 -13 0 -27 5 -31 11 -3 6 -15 9 -25 6 -11 -3 -17
-1 -14 3 3 5 -8 14 -25 22 -16 7 -30 19 -30 26 0 7 -7 20 -15 28 -19 19 -19
54 -1 91 8 15 20 41 27 56 7 15 18 26 25 23 9 -4 11 5 7 32 l-6 36 61 -48 c33
-26 68 -56 78 -67 9 -10 22 -19 27 -19 6 0 20 -8 31 -17 12 -10 -18 23 -66 72
-94 97 -128 135 -128 143 0 3 10 -4 23 -15 12 -11 33 -29 46 -39z m-1391 -634
c15 -51 15 -103 0 -118 -10 -10 -10 -17 0 -32 16 -26 15 -30 -7 -30 -12 0 -21
9 -25 25 -6 24 -24 31 -63 26 -7 -1 -13 4 -13 11 0 7 -3 23 -6 35 -4 15 1 29
18 45 12 13 31 36 41 51 24 37 40 34 55 -13z m1644 -43 c-6 -23 -16 -73 -23
-111 -12 -72 -34 -106 -68 -106 -10 0 -49 -9 -86 -21 -77 -23 -103 -21 -58 6
18 10 30 22 27 27 -3 4 0 16 5 26 7 13 7 22 -1 30 -19 19 -17 80 4 102 11 11
23 18 29 15 5 -4 9 1 9 10 0 11 -5 15 -15 11 -8 -3 -15 -1 -15 4 0 13 37 22
61 15 15 -5 19 -4 14 5 -5 8 -1 11 12 8 11 -2 28 3 37 11 13 11 20 11 28 3 7
-7 16 -12 22 -12 5 0 6 3 3 7 -4 3 -1 13 5 21 18 21 22 -1 10 -51z"/>
<path d="M4825 6360 c-13 -15 -21 -17 -31 -9 -7 6 -17 9 -21 6 -4 -3 -33 -1
-63 4 -35 5 -56 5 -60 -2 -4 -5 -38 -11 -76 -13 -99 -4 -154 -16 -154 -32 0
-9 -11 -14 -31 -14 -23 0 -30 -4 -26 -15 4 -10 -5 -17 -31 -25 -20 -5 -45 -10
-55 -10 -10 0 -15 -4 -12 -10 5 -8 -39 -16 -67 -11 -5 0 -8 -3 -8 -9 0 -5 -18
-10 -40 -10 -27 0 -39 -4 -38 -12 2 -8 -5 -12 -15 -10 -10 2 -24 -1 -30 -6 -7
-5 -34 -13 -61 -17 -44 -6 -76 -18 -159 -60 -15 -8 -33 -12 -40 -9 -7 2 -40
-20 -73 -51 -51 -48 -55 -55 -31 -49 29 7 38 -11 15 -34 -9 -9 -9 -12 0 -12 7
0 12 5 12 10 0 6 7 10 15 10 8 0 15 -7 15 -15 0 -14 27 -21 60 -16 22 4 67 9
135 16 33 4 80 10 105 15 29 5 49 5 58 -2 9 -8 20 -5 42 10 16 12 36 22 45 22
9 0 28 6 43 14 24 12 82 23 162 30 14 2 62 22 107 44 93 48 93 47 93 27 0 -22
7 -19 48 20 20 19 43 35 50 35 20 0 92 52 92 66 0 17 -12 18 -28 2 -9 -9 -12
-7 -12 10 0 22 43 72 61 72 12 0 11 -7 -2 -33 -9 -18 -6 -16 20 7 36 35 39 46
10 46 -29 0 -14 18 24 29 l32 9 -31 1 c-19 1 -38 -7 -49 -19z"/>
<path d="M4375 5693 c-112 -16 -290 -85 -375 -147 -8 -6 -5 1 8 15 13 15 43
37 68 49 55 29 82 56 38 40 -77 -29 -152 -89 -139 -110 4 -6 -8 -27 -25 -46
-34 -39 -50 -73 -50 -107 0 -16 3 -18 12 -9 7 7 21 12 33 12 12 0 26 5 33 12
7 7 12 9 12 6 0 -4 23 0 51 8 38 11 54 12 64 4 10 -8 19 -8 34 -1 11 6 27 8
35 5 9 -4 18 0 21 9 4 9 27 17 62 21 64 8 123 32 123 52 0 7 9 28 20 47 14 24
19 44 14 61 -8 31 10 35 28 6 7 -11 17 -20 22 -20 5 0 2 8 -6 18 -51 60 -12
57 48 -4 36 -36 55 -46 85 -49 32 -3 39 -1 39 15 0 13 5 17 20 13 11 -3 20 -1
20 5 0 5 15 8 33 6 29 -3 30 -2 14 10 -10 8 -17 22 -15 32 6 34 -46 48 -177
50 -66 0 -133 -1 -150 -3z"/>
<path d="M3062 5418 c-7 -7 -12 -18 -12 -26 0 -9 -7 -13 -20 -9 -20 5 -29 -8
-10 -15 6 -2 2 -13 -10 -26 -11 -12 -16 -22 -10 -22 5 0 10 -4 10 -10 0 -5 -7
-7 -15 -4 -11 5 -13 0 -6 -24 6 -19 5 -34 -2 -41 -24 -24 -12 -181 14 -181 10
0 -1 -64 -13 -68 -4 -2 -8 -8 -8 -14 0 -6 7 -8 15 -4 8 3 15 1 15 -4 0 -6 -4
-10 -9 -10 -11 0 -10 -59 1 -76 4 -6 1 -22 -7 -37 -8 -16 -10 -27 -4 -27 6 0
19 -10 29 -22 18 -23 19 -23 37 -4 15 16 16 18 1 13 -10 -4 -18 1 -21 14 -4
16 -2 17 14 8 15 -8 21 -6 26 8 4 10 11 21 16 24 5 4 10 15 12 25 4 43 30 114
40 111 5 -3 11 5 12 17 1 11 10 59 21 105 15 59 18 91 11 108 -5 13 -9 39 -9
58 0 21 -6 35 -16 39 -8 3 -12 10 -9 16 12 20 -7 32 -21 13 -14 -16 -14 -15
-9 15 6 29 5 32 -17 30 -17 -2 -22 1 -20 15 3 20 -9 22 -26 5z"/>
<path d="M2953 4573 c-7 -3 -13 -12 -13 -20 0 -11 3 -13 13 -5 10 8 13 6 13
-8 0 -10 -4 -17 -7 -14 -13 8 -40 -39 -29 -50 17 -17 11 -28 -11 -21 -18 6
-19 5 -8 -14 11 -17 10 -23 -6 -41 -11 -12 -15 -24 -10 -28 14 -10 18 -52 6
-52 -6 0 -11 -7 -11 -15 0 -8 4 -15 8 -15 13 0 92 92 87 100 -2 4 4 15 14 25
21 18 22 47 3 82 -7 12 -12 28 -12 35 0 21 -23 46 -37 41z"/>
<path d="M4834 3285 c-6 -19 -7 -35 -3 -35 4 0 9 -15 11 -32 2 -26 12 -39 49
-63 25 -16 66 -50 90 -75 60 -59 72 -68 100 -72 20 -2 24 1 21 21 -1 14 -4 27
-7 29 -10 10 -55 9 -55 -1 0 -6 -7 -2 -15 9 -8 10 -15 36 -15 56 0 31 -5 40
-29 53 -19 9 -32 26 -36 44 -3 16 -13 32 -21 35 -8 3 -14 12 -14 19 0 18 -32
47 -51 47 -8 0 -19 -16 -25 -35z"/>
<path d="M4462 2967 c-34 -57 -39 -91 -21 -167 6 -25 15 -112 19 -195 8 -146
16 -244 24 -295 3 -14 5 -36 6 -50 4 -52 19 57 31 232 10 143 10 212 -1 353
-7 96 -16 175 -19 175 -4 0 -21 -24 -39 -53z"/>
<path d="M4429 1758 c-2 -28 -5 -49 -9 -63 -1 -5 -2 -13 -1 -17 0 -5 -4 -8
-10 -8 -6 0 -8 -7 -5 -17 4 -9 1 -20 -5 -24 -7 -4 -16 -37 -20 -73 -5 -36 -19
-89 -33 -118 -14 -29 -28 -73 -32 -98 -4 -25 -11 -50 -16 -57 -5 -6 -34 -83
-64 -170 -30 -87 -62 -172 -71 -190 -10 -18 -14 -35 -10 -39 8 -9 57 34 57 50
0 17 59 125 95 176 42 59 67 138 71 230 3 41 9 91 14 110 38 142 64 316 49
326 -5 3 -10 -5 -10 -18z"/>
<path d="M6863 1294 c-57 -60 -88 -69 -103 -29 -15 38 -53 34 -68 -8 -13 -38
-15 -82 -3 -112 6 -13 1 -39 -11 -74 -14 -37 -18 -65 -14 -92 3 -22 2 -67 -4
-102 -8 -53 -6 -73 11 -137 30 -107 34 -152 15 -192 -34 -71 -36 -99 -25 -283
13 -218 15 -224 95 -196 91 30 129 66 84 78 -14 4 -20 14 -21 37 0 17 -3 40
-5 51 -8 33 -8 38 10 99 10 32 14 66 10 75 -4 9 -6 26 -5 39 2 13 -4 31 -12
40 -17 19 -28 72 -16 72 5 0 6 7 3 15 -4 8 -1 22 6 30 6 8 9 18 6 23 -3 5 15
26 40 47 l46 37 -3 122 -3 121 -29 13 c-16 6 -42 12 -58 12 -15 0 -31 5 -34
11 -6 9 35 81 60 104 55 51 117 199 101 241 -8 22 -17 17 -73 -42z"/>
<path d="M4483 1052 c-78 -198 -92 -227 -124 -265 -17 -21 -56 -84 -86 -139
-69 -127 -114 -189 -158 -219 -19 -13 -40 -36 -46 -52 -14 -32 -62 -76 -136
-123 -47 -31 -83 -75 -83 -104 0 -21 67 -10 113 19 25 17 63 35 84 41 42 11
130 90 168 149 12 20 34 47 49 60 14 14 26 30 26 36 0 15 43 55 58 55 7 0 12
7 12 15 0 8 6 15 14 15 23 0 24 21 2 60 -19 35 -19 37 -1 57 22 26 45 89 45
126 0 15 16 52 35 82 23 36 36 72 41 107 3 29 15 79 27 111 12 34 16 62 11 67
-5 5 -26 -36 -51 -98z"/>
</g>
</svg>
